<?xml version="1.0" encoding="utf-8"?>
<!-- Generator: Adobe Illustrator 18.1.1, SVG Export Plug-In . SVG Version: 6.00 Build 0)  -->
<svg version="1.1" xmlns="http://www.w3.org/2000/svg" xmlns:xlink="http://www.w3.org/1999/xlink" x="0px" y="0px"
	 viewBox="-259 291 480 420" enable-background="new -259 291 480 420" xml:space="preserve">
<g id="Layer_1">
	<g>
		<g id="Layer1_1_">
			<g id="Slot_machine_1_">
				<g>
					<path fill="#C15138" d="M162.7,602c0-4.7-3.8-8.4-8.4-8.4h-391.6c-4.7,0-8.4,3.8-8.4,8.4v88.5c0,4.7,3.8,8.4,8.4,8.4h391.6
						c4.7,0,8.4-3.8,8.4-8.4V602z"/>
				</g>
				<g>
					<path fill="none" stroke="#C16F61" stroke-width="9" stroke-miterlimit="10" d="M193.6,537.1h-49.2"/>
				</g>
				<g>

						<rect x="-219.4" y="611.5" fill="none" stroke="#C4C4C4" stroke-width="4.53" stroke-linecap="round" stroke-linejoin="round" stroke-miterlimit="1.4142" width="355.5" height="69.5"/>
				</g>
				<g>
					<path fill="#C15138" d="M-136.4,694.6c0-2.7-2.2-4.8-4.8-4.8h-20.2c-2.7,0-4.8,2.2-4.8,4.8v9.6c0,2.7,2.2,4.8,4.8,4.8h20.2
						c2.7,0,4.8-2.2,4.8-4.8V694.6z"/>
				</g>
				<g>
					<path fill="#C15138" d="M82.6,694.6c0-2.7-2.2-4.8-4.8-4.8H57.6c-2.7,0-4.8,2.2-4.8,4.8v9.6c0,2.7,2.2,4.8,4.8,4.8h20.2
						c2.7,0,4.8-2.2,4.8-4.8V694.6z"/>
				</g>
				<g>
					<path fill="#D7664D" d="M145.9,375.5c-8.2,0-14.9-6.7-14.9-14.9h-345c0,8.2-6.7,14.9-14.9,14.9v195.7c8.2,0,14.9,6.7,14.9,14.9
						h345c0-8.2,6.7-14.9,14.9-14.9V375.5z"/>
				</g>
				<g>
					<path fill="#C15138" d="M139.7,298.4c0-1.6-1.3-3-3-3h-356.7c-1.6,0-3,1.3-3,3v53.5c0,1.6,1.3,3,3,3h356.7c1.6,0,3-1.3,3-3
						V298.4z"/>
				</g>
				<g>
					<path fill="#1E1D21" d="M102.9,304.8c0-1.3-1-2.3-2.3-2.3h-281.4c-1.3,0-2.3,1-2.3,2.3v41.4c0,1.3,1,2.3,2.3,2.3h281.4
						c1.3,0,2.3-1,2.3-2.3V304.8z"/>
				</g>
				<g>
					<path fill="#1E1D21" d="M1.3,665.6c0-0.4-0.3-0.7-0.7-0.7h-84.4c-0.4,0-0.7,0.3-0.7,0.7V678c0,0.4,0.3,0.7,0.7,0.7H0.6
						c0.4,0,0.7-0.3,0.7-0.7V665.6z"/>
				</g>
				<g>
					<path fill="#1E1D21" d="M135.6,539.3c0-1.8-1.5-3.3-3.3-3.3h-347.3c-1.8,0-3.3,1.5-3.3,3.3c0,1.8,1.5,3.3,3.3,3.3h347.3
						C134.1,542.6,135.6,541.1,135.6,539.3z"/>
				</g>
				<g>

						<rect x="-210.4" y="414.2" fill="#E2D5C2" stroke="#F67E64" stroke-width="4.53" stroke-linecap="round" stroke-linejoin="round" stroke-miterlimit="1.4142" width="75.8" height="116.6"/>
				</g>
				<g>

						<rect x="-124.4" y="414.2" fill="#E2D5C2" stroke="#F67E64" stroke-width="4.53" stroke-linecap="round" stroke-linejoin="round" stroke-miterlimit="1.4142" width="75.8" height="116.6"/>
				</g>
				<g>

						<rect x="-38.3" y="414.2" fill="#E2D5C2" stroke="#F67E64" stroke-width="4.53" stroke-linecap="round" stroke-linejoin="round" stroke-miterlimit="1.4142" width="75.8" height="116.6"/>
				</g>
				<g>

						<rect x="48.4" y="414.2" fill="#E2D5C2" stroke="#F67E64" stroke-width="4.53" stroke-linecap="round" stroke-linejoin="round" stroke-miterlimit="1.4142" width="75.8" height="116.6"/>
				</g>
			</g>
			<g>
				<g enable-background="new    ">
					<path fill="#EFEFEF" d="M-99.6,315.1c0.6,0.7,0.8,1.7,0.7,2.8l-1.5,11.8c-0.1,0.7-0.3,1.2-0.5,1.7s-0.5,0.8-0.9,1.1
						c-0.3,0.3-0.7,0.5-1.1,0.7c-0.4,0.2-0.7,0.3-1,0.4s-0.7,0.1-1.1,0.2h-7.6c-0.1,0-0.2,0-0.2,0c0,0-0.1-0.1-0.1-0.1
						c0-0.1-0.1-0.1-0.1-0.2c0-0.1,0-0.1,0-0.1l0.7-6.1c0.1-0.5,0-0.9-0.2-1.1c-0.1-0.1-0.2-0.2-0.3-0.2c-0.1,0-0.1,0-0.2,0v-0.2
						c0.2,0,0.4-0.1,0.5-0.2c0.1-0.1,0.2-0.2,0.4-0.4c0.1-0.2,0.2-0.4,0.2-0.8l1.2-10c0-0.2,0.1-0.3,0.2-0.3s0.2-0.1,0.3-0.1h7.6
						c0,0,0.1,0,0.3,0c0.2,0,0.4,0.1,0.7,0.1c0.3,0.1,0.6,0.2,0.9,0.4C-100.1,314.6-99.8,314.8-99.6,315.1z M-103.1,318.6
						c0-0.2,0-0.3-0.1-0.4c-0.1-0.1-0.1-0.1-0.2-0.1c-0.1,0-0.1,0-0.1,0h-2.9c0,0-0.1,0-0.1,0c-0.1,0-0.1,0.1-0.1,0.2l-1.4,11.1
						c0,0.1,0,0.1,0,0.2c0,0,0.1,0.1,0.1,0.1h3c0,0,0.1,0,0.3-0.1c0.2-0.1,0.3-0.2,0.3-0.5L-103.1,318.6z"/>
				</g>
				<g enable-background="new    ">
					<path fill="#EFEFEF" d="M-84.1,324.3c-0.1,0.5,0,0.9,0.2,1.1c0,0.1,0.1,0.1,0.1,0.1c0.1,0,0.1,0,0.1,0.1c0.1,0,0.1,0,0.2,0v0.2
						c-0.2,0-0.4,0.1-0.5,0.2c-0.1,0.1-0.2,0.2-0.4,0.4c-0.1,0.2-0.2,0.4-0.2,0.8l-0.8,6.1c0,0.2-0.1,0.3-0.2,0.4
						c-0.1,0.1-0.2,0.1-0.3,0.1H-89c0,0-0.1,0-0.1,0c-0.1,0-0.1,0-0.2-0.1c-0.1-0.1-0.1-0.2-0.1-0.3l0.7-5.2c0-0.1,0-0.1,0-0.1
						c0,0-0.1-0.1-0.1-0.1h-3.3c0,0-0.1,0-0.1,0c-0.1,0-0.1,0.1-0.1,0.2l-0.7,5.2c0,0.2-0.1,0.3-0.2,0.4c-0.1,0.1-0.2,0.1-0.3,0.1
						h-3.3c0,0-0.1,0-0.1,0c-0.1,0-0.1,0-0.2-0.1c-0.1-0.1-0.1-0.2-0.1-0.3l0.8-6.1c0.1-0.5,0-0.9-0.2-1.1c-0.1-0.1-0.2-0.2-0.3-0.2
						c-0.1,0-0.1,0-0.2,0v-0.2c0.2,0,0.4-0.1,0.5-0.2c0.1-0.1,0.2-0.2,0.3-0.4c0.1-0.2,0.2-0.4,0.2-0.8l0.8-6.4
						c0.1-0.7,0.3-1.2,0.5-1.7c0.3-0.5,0.5-0.8,0.9-1.1c0.3-0.3,0.7-0.5,1-0.7c0.4-0.2,0.7-0.3,1-0.4c0.3-0.1,0.7-0.1,1.1-0.2h3.9
						c0,0,0.1,0,0.3,0c0.2,0,0.5,0.1,0.7,0.1c0.3,0.1,0.6,0.2,0.9,0.4c0.3,0.2,0.6,0.4,0.9,0.7c0.6,0.7,0.9,1.7,0.7,2.9L-84.1,324.3
						z M-87.6,318.6c0-0.2,0-0.3-0.1-0.4c-0.1-0.1-0.1-0.1-0.2-0.1c-0.1,0-0.1,0-0.1,0h-2.6c-0.1,0-0.2,0-0.3,0.1
						c-0.1,0-0.1,0.1-0.2,0.2c-0.1,0.1-0.1,0.2-0.1,0.3l-0.6,4.9c0,0.1,0,0.1,0.1,0.1c0,0,0.1,0.1,0.1,0.1h3.3c0,0,0.1,0,0.1,0
						c0.1,0,0.1-0.1,0.1-0.2L-87.6,318.6z"/>
				</g>
				<g enable-background="new    ">
					<path fill="#EFEFEF" d="M-68.2,314.9c0.5,0.7,0.8,1.6,0.6,2.8l-0.2,1.6c0,0.2-0.1,0.3-0.2,0.3c-0.1,0.1-0.2,0.1-0.3,0.1h-3.3
						c-0.1,0-0.1,0-0.2-0.1s-0.1-0.1-0.2-0.2v-0.1l0.1-1c0-0.1,0-0.3-0.1-0.4c-0.1-0.1-0.1-0.1-0.2-0.1c-0.1,0-0.1,0-0.1,0h-2.6
						c0,0-0.1,0-0.3,0.1c-0.2,0.1-0.3,0.2-0.3,0.5l-1.3,10.8c0,0.2,0,0.3,0.1,0.4c0,0.1,0.1,0.1,0.2,0.1c0.1,0,0.1,0,0.1,0h2.6
						c0.1,0,0.2,0,0.3-0.1c0.2-0.1,0.3-0.2,0.4-0.5l0.1-1.2h-1.5c-0.2,0-0.3-0.1-0.3-0.2s-0.1-0.2-0.1-0.3l0.4-3.3
						c0-0.1,0.1-0.2,0.1-0.3c0.1-0.1,0.2-0.1,0.4-0.1l5.3,0c0.1,0,0.2,0,0.2,0.1c0.1,0,0.1,0.1,0.1,0.3c0,0,0,0.1,0,0.1
						c0,0.2-0.1,0.5-0.1,0.9c0,0.4-0.1,0.8-0.1,1.3c-0.1,0.5-0.1,1-0.2,1.5c-0.1,0.5-0.1,1.1-0.2,1.6c-0.2,1.2-0.3,2.6-0.5,4
						c0,0.2-0.1,0.3-0.2,0.3c-0.1,0.1-0.2,0.1-0.3,0.1h-7.5h-0.3c-0.1,0-0.3,0-0.5-0.1s-0.4-0.1-0.7-0.2s-0.5-0.2-0.7-0.4
						c-0.3-0.2-0.5-0.4-0.7-0.6c-0.6-0.7-0.8-1.6-0.6-2.7l0.3-2.5c0.1-0.5,0-0.8-0.2-1.1c-0.1-0.1-0.2-0.2-0.3-0.2
						c-0.1,0-0.1,0-0.2,0v-0.2c0.2,0,0.3-0.1,0.4-0.2c0.1-0.1,0.2-0.2,0.3-0.4c0.1-0.2,0.2-0.4,0.2-0.7l0.1-0.6
						c0.1-1.2,0.3-2.3,0.4-3.3c0.1-0.4,0.1-0.8,0.1-1.2c0-0.4,0.1-0.8,0.1-1.1c0-0.3,0.1-0.6,0.1-0.8c0-0.2,0-0.3,0-0.3
						c0.1-0.8,0.4-1.4,0.8-1.8s0.8-0.8,1.2-1.1c0.4-0.3,0.9-0.4,1.3-0.5c0.4-0.1,0.7-0.1,0.9-0.2h0c0,0,0.1,0,0.1,0c0,0,0.1,0,0.1,0
						h0.1h3.9h0.1c0,0,0.1,0,0.1,0c0,0,0.1,0,0.1,0c0.1,0,0.3,0,0.5,0.1c0.2,0,0.5,0.1,0.7,0.2c0.3,0.1,0.5,0.2,0.8,0.4
						C-68.7,314.4-68.4,314.6-68.2,314.9z"/>
				</g>
				<g enable-background="new    ">
					<path fill="#EFEFEF" d="M-60.6,324.3c-0.1,0.5,0,0.9,0.2,1.1c0,0.1,0.1,0.1,0.1,0.1c0.1,0,0.1,0,0.1,0.1c0.1,0,0.1,0,0.2,0v0.2
						c-0.2,0-0.4,0.1-0.5,0.2c-0.1,0.1-0.2,0.2-0.4,0.4c-0.1,0.2-0.2,0.4-0.2,0.8l-0.8,6.1c0,0.2-0.1,0.3-0.2,0.4
						c-0.1,0.1-0.2,0.1-0.3,0.1h-3.3c0,0-0.1,0-0.1,0c-0.1,0-0.1,0-0.2-0.1c-0.1-0.1-0.1-0.2-0.1-0.3l0.8-6.2c0-0.5-0.1-0.8-0.2-1
						c-0.1-0.1-0.2-0.2-0.3-0.2c-0.1,0-0.1,0-0.2,0v-0.2c0.2,0,0.3-0.1,0.4-0.2c0.1-0.1,0.2-0.2,0.3-0.4c0.1-0.2,0.2-0.4,0.2-0.7
						l1.3-10.1c0-0.2,0.1-0.3,0.2-0.3c0.1-0.1,0.2-0.1,0.3-0.1h3.3c0,0,0.1,0,0.1,0c0.1,0,0.1,0,0.2,0.1c0.1,0.1,0.1,0.2,0.1,0.3
						L-60.6,324.3z"/>
				</g>
				<g enable-background="new    ">
					<path fill="#EFEFEF" d="M-44,314c0.1,0.1,0.1,0.2,0.1,0.3l-1.2,10c-0.1,0.5,0,0.9,0.2,1.1c0.1,0.1,0.2,0.2,0.3,0.2
						c0.1,0,0.1,0,0.2,0v0.2c0,0-0.1,0-0.2,0c-0.1,0-0.2,0.1-0.3,0.2c-0.1,0.1-0.2,0.2-0.4,0.4c-0.1,0.2-0.2,0.4-0.2,0.8h0l-0.8,6.1
						c0,0.2-0.1,0.3-0.2,0.4c-0.1,0.1-0.2,0.1-0.3,0.1h-3.3c-0.1,0-0.2-0.1-0.3-0.2c-0.1-0.1-0.1-0.2-0.1-0.2l-2.6-9l-1.1,9
						c0,0.2-0.1,0.3-0.2,0.4c-0.1,0.1-0.2,0.1-0.3,0.1h-3.3c0,0-0.1,0-0.1,0c-0.1,0-0.1,0-0.2-0.1c-0.1-0.1-0.1-0.2-0.1-0.3l0.8-6.3
						c0-0.4,0-0.6-0.2-0.8c-0.1-0.1-0.2-0.2-0.3-0.2c-0.1,0-0.1,0-0.2,0v-0.2c0.2,0,0.3-0.1,0.4-0.1c0.1-0.1,0.2-0.2,0.3-0.3
						c0.1-0.2,0.2-0.4,0.2-0.6l1.3-10.3c0-0.2,0.1-0.3,0.2-0.3c0.1-0.1,0.2-0.1,0.3-0.1h3.3c0.1,0,0.2,0.1,0.3,0.2
						c0.1,0.1,0.1,0.2,0.1,0.2l2.6,9l1.1-9c0-0.2,0.1-0.3,0.2-0.3s0.2-0.1,0.3-0.1h3.3c0,0,0.1,0,0.1,0C-44.1,313.9-44,313.9-44,314
						z"/>
				</g>
				<g enable-background="new    ">
					<path fill="#EFEFEF" d="M-29.4,315.1c0.6,0.7,0.8,1.7,0.7,2.8l-1.5,11.8c-0.1,0.7-0.3,1.2-0.5,1.7s-0.5,0.8-0.9,1.1
						c-0.3,0.3-0.7,0.5-1.1,0.7c-0.4,0.2-0.7,0.3-1,0.4s-0.7,0.1-1.1,0.2h-7.6c-0.1,0-0.2,0-0.2,0c0,0-0.1-0.1-0.1-0.1
						c0-0.1-0.1-0.1-0.1-0.2c0-0.1,0-0.1,0-0.1l0.7-6.1c0.1-0.5,0-0.9-0.2-1.1c-0.1-0.1-0.2-0.2-0.3-0.2c-0.1,0-0.1,0-0.2,0v-0.2
						c0.2,0,0.4-0.1,0.5-0.2c0.1-0.1,0.2-0.2,0.4-0.4c0.1-0.2,0.2-0.4,0.2-0.8l1.2-10c0-0.2,0.1-0.3,0.2-0.3s0.2-0.1,0.3-0.1h7.6
						c0,0,0.1,0,0.3,0c0.2,0,0.4,0.1,0.7,0.1c0.3,0.1,0.6,0.2,0.9,0.4C-29.9,314.6-29.6,314.8-29.4,315.1z M-32.9,318.6
						c0-0.2,0-0.3-0.1-0.4c-0.1-0.1-0.1-0.1-0.2-0.1c-0.1,0-0.1,0-0.1,0h-2.9c0,0-0.1,0-0.1,0c-0.1,0-0.1,0.1-0.1,0.2l-1.4,11.1
						c0,0.1,0,0.1,0,0.2c0,0,0.1,0.1,0.1,0.1h3c0,0,0.1,0,0.3-0.1c0.2-0.1,0.3-0.2,0.3-0.5L-32.9,318.6z"/>
				</g>
				<g enable-background="new    ">
					<path fill="#EFEFEF" d="M-12.9,314c0.1,0.1,0.1,0.2,0.1,0.3l-0.4,3.3c0,0.2-0.1,0.3-0.2,0.3s-0.2,0.1-0.3,0.1H-21
						c0,0-0.1,0-0.1,0s-0.1,0.1-0.1,0.2l-0.7,5.2c0,0.1,0,0.1,0.1,0.1c0,0.1,0.1,0.1,0.1,0.1h3.3c0,0,0.1,0,0.1,0
						c0.1,0,0.1,0,0.2,0.1c0.1,0.1,0.1,0.2,0.1,0.3l-0.4,3.3c0,0.2-0.1,0.3-0.2,0.3c-0.1,0.1-0.2,0.1-0.3,0.1h-3.3c0,0-0.1,0-0.1,0
						c-0.1,0-0.1,0.1-0.1,0.2l-0.2,1.3c0,0.1,0,0.1,0,0.1c0,0,0.1,0.1,0.2,0.1h7.2c0,0,0.1,0,0.1,0c0.1,0,0.1,0.1,0.2,0.1
						c0,0,0.1,0.1,0.1,0.1c0,0,0,0.1,0,0.2l-0.4,3.3c0,0.2-0.1,0.3-0.2,0.3c-0.1,0.1-0.2,0.1-0.3,0.1h-11.2c0,0-0.1,0-0.1,0
						c-0.1,0-0.1,0-0.2-0.1c-0.1-0.1-0.1-0.2-0.1-0.3l0.8-6.1c0.1-0.5,0-0.9-0.2-1.1c-0.1-0.1-0.2-0.2-0.3-0.2c-0.1,0-0.1,0-0.2,0
						v-0.2c0.2,0,0.4-0.1,0.5-0.2c0.1-0.1,0.2-0.2,0.3-0.4c0.1-0.2,0.2-0.4,0.2-0.8l1.2-10c0-0.2,0.1-0.3,0.2-0.3
						c0.1-0.1,0.2-0.1,0.3-0.1h11.2c0,0,0.1,0,0.1,0C-13,313.9-13,313.9-12.9,314z"/>
				</g>
				<g enable-background="new    ">
					<path fill="#EFEFEF" d="M0.1,329.8c0.1,0.1,0.1,0.2,0.1,0.3l-0.4,3.3c0,0.2-0.1,0.3-0.2,0.3c-0.1,0.1-0.2,0.1-0.3,0.1h-11.2
						c0,0-0.1,0-0.1,0c-0.1,0-0.1,0-0.2-0.1c-0.1-0.1-0.1-0.2-0.1-0.3l0.8-6.1c0.1-0.5,0-0.9-0.2-1.1c-0.1-0.1-0.2-0.2-0.3-0.2
						c-0.1,0-0.1,0-0.2,0v-0.2c0.2,0,0.4-0.1,0.5-0.2c0.1-0.1,0.2-0.2,0.3-0.4c0.1-0.2,0.2-0.4,0.2-0.8l1.2-10
						c0-0.2,0.1-0.3,0.2-0.3s0.2-0.1,0.3-0.1h3.3c0,0,0.1,0,0.1,0s0.1,0,0.2,0.1c0.1,0.1,0.1,0.2,0.1,0.3L-7,324.5
						c0,0.4,0,0.8,0.2,1c0,0.1,0.1,0.1,0.1,0.1c0.1,0,0.1,0,0.1,0.1c0.1,0,0.1,0,0.2,0v0.2c-0.2,0-0.3,0.1-0.4,0.2
						c-0.1,0.1-0.2,0.2-0.3,0.4c-0.1,0.2-0.2,0.4-0.2,0.7l-0.2,1.9c0,0.2,0,0.3,0.1,0.4c0,0.1,0.1,0.1,0.2,0.1c0.1,0,0.1,0,0.1,0
						h6.9c0,0,0.1,0,0.1,0S0,329.7,0.1,329.8z"/>
				</g>
				<g enable-background="new    ">
					<path fill="#EFEFEF" d="M7.9,324.3c-0.1,0.5,0,0.9,0.2,1.1c0,0.1,0.1,0.1,0.1,0.1c0.1,0,0.1,0,0.1,0.1c0.1,0,0.1,0,0.2,0v0.2
						c-0.2,0-0.4,0.1-0.5,0.2c-0.1,0.1-0.2,0.2-0.4,0.4c-0.1,0.2-0.2,0.4-0.2,0.8l-0.8,6.1c0,0.2-0.1,0.3-0.2,0.4
						c-0.1,0.1-0.2,0.1-0.3,0.1H3c0,0-0.1,0-0.1,0c-0.1,0-0.1,0-0.2-0.1c-0.1-0.1-0.1-0.2-0.1-0.3l0.8-6.2c0-0.5-0.1-0.8-0.2-1
						c-0.1-0.1-0.2-0.2-0.3-0.2c-0.1,0-0.1,0-0.2,0v-0.2c0.2,0,0.3-0.1,0.4-0.2c0.1-0.1,0.2-0.2,0.3-0.4c0.1-0.2,0.2-0.4,0.2-0.7
						L5,314.3c0-0.2,0.1-0.3,0.2-0.3s0.2-0.1,0.3-0.1h3.3c0,0,0.1,0,0.1,0c0.1,0,0.1,0,0.2,0.1c0.1,0.1,0.1,0.2,0.1,0.3L7.9,324.3z"
						/>
				</g>
				<g enable-background="new    ">
					<path fill="#EFEFEF" d="M24.5,314c0.1,0.1,0.1,0.2,0.1,0.3l-1.2,10c-0.1,0.5,0,0.9,0.2,1.1c0.1,0.1,0.2,0.2,0.3,0.2
						c0.1,0,0.1,0,0.2,0v0.2c0,0-0.1,0-0.2,0c-0.1,0-0.2,0.1-0.3,0.2c-0.1,0.1-0.2,0.2-0.4,0.4c-0.1,0.2-0.2,0.4-0.2,0.8h0l-0.8,6.1
						c0,0.2-0.1,0.3-0.2,0.4c-0.1,0.1-0.2,0.1-0.3,0.1h-3.3c-0.1,0-0.2-0.1-0.3-0.2c-0.1-0.1-0.1-0.2-0.1-0.2l-2.6-9l-1.1,9
						c0,0.2-0.1,0.3-0.2,0.4c-0.1,0.1-0.2,0.1-0.3,0.1h-3.3c0,0-0.1,0-0.1,0c-0.1,0-0.1,0-0.2-0.1c-0.1-0.1-0.1-0.2-0.1-0.3L11,327
						c0-0.4,0-0.6-0.2-0.8c-0.1-0.1-0.2-0.2-0.3-0.2c-0.1,0-0.1,0-0.2,0v-0.2c0.2,0,0.3-0.1,0.4-0.1s0.2-0.2,0.3-0.3
						c0.1-0.2,0.2-0.4,0.2-0.6l1.3-10.3c0-0.2,0.1-0.3,0.2-0.3c0.1-0.1,0.2-0.1,0.3-0.1h3.3c0.1,0,0.2,0.1,0.3,0.2
						c0.1,0.1,0.1,0.2,0.1,0.2l2.6,9l1.1-9c0-0.2,0.1-0.3,0.2-0.3c0.1-0.1,0.2-0.1,0.3-0.1h3.3c0,0,0.1,0,0.1,0S24.5,313.9,24.5,314
						z"/>
				</g>
				<g enable-background="new    ">
					<path fill="#EFEFEF" d="M38.9,314.9c0.5,0.7,0.8,1.6,0.6,2.8l-0.2,1.6c0,0.2-0.1,0.3-0.2,0.3c-0.1,0.1-0.2,0.1-0.3,0.1h-3.3
						c-0.1,0-0.1,0-0.2-0.1c-0.1,0-0.1-0.1-0.2-0.2v-0.1l0.1-1c0-0.1,0-0.3-0.1-0.4c-0.1-0.1-0.1-0.1-0.2-0.1c-0.1,0-0.1,0-0.1,0
						h-2.6c0,0-0.1,0-0.3,0.1c-0.2,0.1-0.3,0.2-0.3,0.5l-1.3,10.8c0,0.2,0,0.3,0.1,0.4c0,0.1,0.1,0.1,0.2,0.1c0.1,0,0.1,0,0.1,0h2.6
						c0.1,0,0.2,0,0.3-0.1c0.2-0.1,0.3-0.2,0.4-0.5l0.1-1.2h-1.5c-0.2,0-0.3-0.1-0.3-0.2c-0.1-0.1-0.1-0.2-0.1-0.3l0.4-3.3
						c0-0.1,0.1-0.2,0.1-0.3c0.1-0.1,0.2-0.1,0.4-0.1l5.3,0c0.1,0,0.2,0,0.2,0.1c0.1,0,0.1,0.1,0.1,0.3c0,0,0,0.1,0,0.1
						c0,0.2-0.1,0.5-0.1,0.9c0,0.4-0.1,0.8-0.1,1.3c-0.1,0.5-0.1,1-0.2,1.5c-0.1,0.5-0.1,1.1-0.2,1.6c-0.2,1.2-0.3,2.6-0.5,4
						c0,0.2-0.1,0.3-0.2,0.3c-0.1,0.1-0.2,0.1-0.3,0.1h-7.5h-0.3c-0.1,0-0.3,0-0.5-0.1c-0.2,0-0.4-0.1-0.7-0.2
						c-0.2-0.1-0.5-0.2-0.7-0.4c-0.3-0.2-0.5-0.4-0.7-0.6c-0.6-0.7-0.8-1.6-0.6-2.7l0.3-2.5c0.1-0.5,0-0.8-0.2-1.1
						c-0.1-0.1-0.2-0.2-0.3-0.2c-0.1,0-0.1,0-0.2,0v-0.2c0.2,0,0.3-0.1,0.4-0.2s0.2-0.2,0.3-0.4c0.1-0.2,0.2-0.4,0.2-0.7l0.1-0.6
						c0.1-1.2,0.3-2.3,0.4-3.3c0.1-0.4,0.1-0.8,0.1-1.2c0-0.4,0.1-0.8,0.1-1.1c0-0.3,0.1-0.6,0.1-0.8c0-0.2,0-0.3,0-0.3
						c0.1-0.8,0.4-1.4,0.8-1.8c0.4-0.5,0.8-0.8,1.2-1.1c0.4-0.3,0.9-0.4,1.3-0.5c0.4-0.1,0.7-0.1,0.9-0.2h0c0,0,0.1,0,0.1,0
						c0,0,0.1,0,0.1,0h0.1H36h0.1c0,0,0.1,0,0.1,0c0,0,0.1,0,0.1,0c0.1,0,0.3,0,0.5,0.1c0.2,0,0.5,0.1,0.7,0.2s0.5,0.2,0.8,0.4
						C38.5,314.4,38.7,314.6,38.9,314.9z"/>
				</g>
			</g>
		</g>
	</g>
	<path fill="#C15138" d="M120.1,400.8H-203c-3.1,0-5.6-2.5-5.6-5.6v-15.9c0-3.1,2.5-5.6,5.6-5.6h323.1c3.1,0,5.6,2.5,5.6,5.6v15.9
		C125.7,398.3,123.2,400.8,120.1,400.8z"/>
	<g>
		<rect x="-197.3" y="380.4" fill="none" width="53.4" height="22.4"/>
		<path fill="#1E1D21" d="M-192.6,389.1C-192.6,389.1-192.6,389-192.6,389.1C-192.6,389-192.6,389-192.6,389.1
			c-0.1-0.1-0.1-0.1-0.2-0.1c0,0-0.1,0-0.1,0c0,0-0.1,0-0.1,0l0-0.2c0.1,0,0.2-0.1,0.3-0.1c0.1-0.1,0.2-0.2,0.2-0.3
			c0.1-0.1,0.1-0.3,0.2-0.6l0.9-7c0-0.1,0.1-0.2,0.1-0.2c0.1,0,0.1-0.1,0.2-0.1h5.3c0,0,0.1,0,0.2,0c0.1,0,0.3,0,0.5,0.1
			c0.2,0.1,0.4,0.1,0.6,0.3c0.2,0.1,0.4,0.3,0.6,0.5c0,0,0.1,0.1,0.1,0.1c0,0,0.1,0.1,0.1,0.1c0.3,0.5,0.4,1.1,0.3,1.8l-1,8.3
			c-0.1,0.5-0.2,0.9-0.3,1.2c-0.2,0.3-0.4,0.6-0.6,0.8c-0.2,0.2-0.5,0.4-0.7,0.5c-0.3,0.1-0.5,0.2-0.7,0.2c-0.2,0.1-0.5,0.1-0.8,0.1
			h-5.2h-0.1c-0.1,0-0.1,0-0.1,0c0,0-0.1,0-0.1-0.1c0-0.1,0-0.1,0-0.2c0-0.1,0-0.1,0-0.1l0.5-4.2c0-0.2,0-0.4,0-0.5
			C-192.6,389.2-192.6,389.2-192.6,389.1C-192.6,389.1-192.6,389.1-192.6,389.1z M-189.8,391.3
			C-189.8,391.4-189.8,391.4-189.8,391.3c0,0.1,0.1,0.1,0.1,0.1h2.1c0.1,0,0.2,0,0.2,0c0.1,0,0.1-0.1,0.2-0.1
			c0.1-0.1,0.1-0.1,0.1-0.2l0.9-7.4c0-0.1,0-0.2-0.1-0.3c0,0-0.1-0.1-0.2-0.1c0,0-0.1,0-0.1,0h-2.1c0,0-0.1,0-0.1,0
			c0,0-0.1,0.1-0.1,0.1L-189.8,391.3z"/>
		<path fill="#1E1D21" d="M-182.3,389.1C-182.3,389.1-182.3,389.1-182.3,389.1C-182.3,389-182.4,389-182.3,389.1
			c-0.1-0.1-0.1-0.1-0.2-0.1c0,0-0.1,0-0.1,0c0,0-0.1,0-0.1,0l0-0.2c0.1,0,0.2-0.1,0.3-0.1c0.1-0.1,0.2-0.2,0.2-0.3
			c0.1-0.1,0.1-0.3,0.2-0.6l0.6-4.5c0.1-0.5,0.2-0.8,0.4-1.2c0.2-0.3,0.4-0.6,0.6-0.8s0.5-0.4,0.7-0.5c0.3-0.1,0.5-0.2,0.7-0.2
			c0.2-0.1,0.5-0.1,0.8-0.1h2.8c0,0,0.1,0,0.2,0c0.1,0,0.3,0,0.5,0.1c0.2,0.1,0.4,0.1,0.6,0.3c0.2,0.1,0.4,0.3,0.6,0.5
			c0,0,0.1,0.1,0.1,0.1s0.1,0.1,0.1,0.1c0.3,0.5,0.4,1.1,0.3,1.8l-0.6,4.5c0,0.4,0,0.6,0.2,0.8c0.1,0.1,0.2,0.1,0.2,0.2
			c0,0,0.1,0,0.1,0h0l0,0.1v0h0c0,0-0.1,0-0.1,0c-0.1,0-0.1,0.1-0.2,0.1c-0.1,0.1-0.1,0.2-0.2,0.3c-0.1,0.1-0.1,0.3-0.1,0.5
			l-0.5,4.3c0,0.1-0.1,0.2-0.1,0.2c-0.1,0-0.1,0.1-0.2,0.1h-2.2h-0.1c0,0,0,0-0.1,0c-0.1,0-0.1,0-0.1-0.1c0,0-0.1-0.1-0.1-0.2
			l0.5-3.7c0,0,0-0.1,0-0.1c0,0-0.1,0-0.1,0h-2.3c0,0-0.1,0-0.1,0c-0.1,0-0.1,0.1-0.1,0.1l-0.5,3.7c0,0.1-0.1,0.2-0.1,0.2
			c-0.1,0-0.1,0.1-0.2,0.1h-2.2h-0.1c0,0-0.1,0-0.1,0s0,0-0.1,0c0,0,0,0-0.1,0c0,0-0.1-0.1-0.1-0.2l0.5-4.3c0-0.2,0-0.4,0-0.5
			C-182.3,389.2-182.3,389.2-182.3,389.1C-182.3,389.1-182.3,389.1-182.3,389.1z M-178.1,383.3c-0.1,0-0.2,0-0.2,0.1
			c-0.1,0-0.1,0.1-0.2,0.1c-0.1,0.1-0.1,0.1-0.1,0.2l-0.4,3.4c0,0.1,0,0.1,0,0.1c0,0,0.1,0.1,0.1,0.1h2.3c0,0,0,0,0.1,0
			c0.1,0,0.1-0.1,0.1-0.1l0.4-3.4c0-0.1,0-0.2-0.1-0.3c0,0-0.1-0.1-0.2-0.1c0,0-0.1,0-0.1,0H-178.1z M-173.1,388.8l0-0.1h0
			c0,0-0.1,0-0.1,0c0,0,0,0,0,0c0,0,0.1,0,0.1,0c0,0,0,0,0,0L-173.1,388.8z"/>
		<path fill="#1E1D21" d="M-171.9,389.2C-172,389.2-172,389.1-171.9,389.2c-0.1-0.1-0.2-0.2-0.2-0.2c0,0-0.1,0-0.1,0l0-0.2
			c0.1,0,0.2-0.1,0.3-0.1c0.1-0.1,0.2-0.1,0.2-0.2c0.1-0.1,0.1-0.3,0.2-0.5l0.1-0.4c0.1-0.8,0.2-1.6,0.3-2.3c0-0.3,0.1-0.6,0.1-0.8
			c0-0.3,0.1-0.5,0.1-0.7c0-0.2,0-0.4,0.1-0.5c0-0.1,0-0.2,0-0.2c0.1-0.5,0.3-0.9,0.5-1.3c0.3-0.3,0.5-0.6,0.8-0.8
			c0.3-0.2,0.6-0.3,0.9-0.4c0.3-0.1,0.5-0.1,0.6-0.1h0c0,0,0,0,0.1,0s0,0,0.1,0h0h2.7h0c0,0,0,0,0.1,0c0,0,0.1,0,0.1,0
			c0.2,0,0.4,0.1,0.6,0.1c0.3,0.1,0.6,0.2,0.8,0.4c0.1,0.1,0.1,0.1,0.2,0.2c0.1,0.1,0.1,0.1,0.2,0.2c0.4,0.5,0.5,1.1,0.4,1.9
			l-0.1,1.1c0,0.1-0.1,0.2-0.1,0.2s-0.1,0.1-0.2,0.1h-2.3c0,0-0.1,0-0.1,0c0,0-0.1-0.1-0.1-0.1c0,0,0-0.1,0-0.1c0-0.1,0-0.3,0.1-0.6
			v-0.1c0,0,0-0.1,0-0.1c0,0,0-0.1,0-0.1c0,0-0.1-0.1-0.2-0.1c0,0-0.1,0-0.1,0h-1.8c-0.1,0-0.2,0-0.2,0.1c-0.1,0-0.1,0.1-0.1,0.1
			s-0.1,0.1-0.1,0.2l-0.9,7.4c0,0.1,0,0.2,0.1,0.2c0,0,0,0,0.1,0.1s0.1,0,0.2,0h1.8c0,0,0.1,0,0.2,0c0.1,0,0.2-0.1,0.2-0.3l0.1-0.4
			l0.1-0.4h-1h-0.1c-0.2,0-0.3-0.1-0.2-0.3l0.3-2.3c0-0.1,0.1-0.2,0.1-0.2s0.1-0.1,0.2-0.1l3.6,0c0,0,0.1,0,0.2,0
			c0.1,0,0.1,0.1,0.1,0.2c0,0,0,0,0,0c0,0,0,0,0,0v0.1c0,0.2-0.1,0.4-0.1,0.6c0,0.3-0.1,0.6-0.1,0.9c0,0.3-0.1,0.7-0.1,1
			c-0.1,0.4-0.1,0.7-0.1,1.1c-0.1,0.8-0.2,1.7-0.3,2.7c0,0.1-0.1,0.2-0.1,0.2c-0.1,0-0.1,0.1-0.2,0.1h-5.1h-0.1c-0.1,0-0.1,0-0.1,0
			c-0.1,0-0.2,0-0.4,0s-0.3-0.1-0.5-0.1c-0.2-0.1-0.3-0.1-0.5-0.3s-0.3-0.2-0.5-0.4c0,0,0,0,0-0.1c0,0,0,0,0-0.1
			c-0.3-0.5-0.4-1.1-0.3-1.8l0.2-1.7c0-0.2,0-0.3,0-0.4C-171.8,389.4-171.9,389.3-171.9,389.2z"/>
		<path fill="#1E1D21" d="M-153.4,394.3L-153.4,394.3c-0.1,0-0.1,0-0.1,0c0,0-0.1,0-0.1-0.1c-0.1-0.1-0.1-0.1-0.1-0.2l0.5-4.3
			c0-0.2,0-0.3,0-0.5c0,0,0-0.1,0-0.1c0,0,0-0.1,0-0.1c0,0,0,0,0-0.1c-0.1-0.1-0.2-0.1-0.2-0.2c-0.1,0-0.1,0-0.1,0l0-0.2
			c0.1,0,0.2-0.1,0.3-0.1c0.1-0.1,0.2-0.1,0.2-0.3c0.1-0.1,0.1-0.3,0.2-0.5l0.4-3.6l0.1-0.5l-0.6,0.2c0,0,0,0-0.1,0
			c-0.1,0-0.2,0-0.2,0c0,0-0.1-0.1-0.1-0.1l-0.6-2.1c0,0,0,0,0-0.1s0-0.1,0-0.2c0-0.1,0.1-0.1,0.2-0.2l1.8-0.7c0,0,0,0,0.1,0
			c0,0,0.1,0,0.1,0h2.3c0,0,0,0,0.1,0s0.1,0,0.1,0.1c0.1,0.1,0.1,0.1,0.1,0.2v0.1l-0.9,7c0,0.4,0,0.6,0.2,0.8
			c0.1,0.1,0.1,0.1,0.2,0.1c0.1,0,0.1,0,0.1,0h0l0,0.2h0c0,0-0.1,0-0.1,0c-0.1,0-0.1,0.1-0.2,0.1c-0.1,0.1-0.1,0.2-0.2,0.3
			c-0.1,0.1-0.1,0.3-0.1,0.5l-0.5,4.2c0,0.1-0.1,0.2-0.1,0.2c-0.1,0-0.1,0.1-0.2,0.1H-153.4z"/>
	</g>
	<g>
		<rect x="-120" y="380.4" fill="none" width="70.6" height="22.4"/>
		<path fill="#1E1D21" d="M-108.8,389.1C-108.8,389.1-108.9,389-108.8,389.1C-108.9,389-108.9,389-108.8,389.1
			c-0.1-0.1-0.1-0.1-0.2-0.1c0,0-0.1,0-0.1,0c0,0-0.1,0-0.1,0l0-0.2c0.1,0,0.2-0.1,0.3-0.1c0.1-0.1,0.2-0.2,0.2-0.3
			c0.1-0.1,0.1-0.3,0.2-0.6l0.9-7c0-0.1,0.1-0.2,0.1-0.2c0.1,0,0.1-0.1,0.2-0.1h5.3c0,0,0.1,0,0.2,0c0.1,0,0.3,0,0.5,0.1
			c0.2,0.1,0.4,0.1,0.6,0.3c0.2,0.1,0.4,0.3,0.6,0.5c0,0,0.1,0.1,0.1,0.1c0,0,0.1,0.1,0.1,0.1c0.3,0.5,0.4,1.1,0.3,1.8l-1,8.3
			c-0.1,0.5-0.2,0.9-0.3,1.2c-0.2,0.3-0.4,0.6-0.6,0.8c-0.2,0.2-0.5,0.4-0.7,0.5c-0.3,0.1-0.5,0.2-0.7,0.2c-0.2,0.1-0.5,0.1-0.8,0.1
			h-5.2h-0.1c-0.1,0-0.1,0-0.1,0c0,0-0.1,0-0.1-0.1c0-0.1,0-0.1,0-0.2c0-0.1,0-0.1,0-0.1l0.5-4.2c0-0.2,0-0.4,0-0.5
			C-108.8,389.2-108.8,389.2-108.8,389.1C-108.8,389.1-108.8,389.1-108.8,389.1z M-106,391.3C-106,391.4-106,391.4-106,391.3
			c0,0.1,0.1,0.1,0.1,0.1h2.1c0.1,0,0.2,0,0.2,0c0.1,0,0.1-0.1,0.2-0.1c0.1-0.1,0.1-0.1,0.1-0.2l0.9-7.4c0-0.1,0-0.2-0.1-0.3
			c0,0-0.1-0.1-0.2-0.1c0,0-0.1,0-0.1,0h-2.1c0,0-0.1,0-0.1,0c0,0-0.1,0.1-0.1,0.1L-106,391.3z"/>
		<path fill="#1E1D21" d="M-98.5,389.1C-98.6,389.1-98.6,389.1-98.5,389.1C-98.6,389-98.6,389-98.5,389.1c-0.1-0.1-0.1-0.1-0.2-0.1
			c0,0-0.1,0-0.1,0c0,0-0.1,0-0.1,0l0-0.2c0.1,0,0.2-0.1,0.3-0.1c0.1-0.1,0.2-0.2,0.2-0.3c0.1-0.1,0.1-0.3,0.2-0.6l0.6-4.5
			c0.1-0.5,0.2-0.8,0.4-1.2c0.2-0.3,0.4-0.6,0.6-0.8s0.5-0.4,0.7-0.5c0.3-0.1,0.5-0.2,0.7-0.2c0.2-0.1,0.5-0.1,0.8-0.1h2.8
			c0,0,0.1,0,0.2,0c0.1,0,0.3,0,0.5,0.1c0.2,0.1,0.4,0.1,0.6,0.3c0.2,0.1,0.4,0.3,0.6,0.5c0,0,0.1,0.1,0.1,0.1s0.1,0.1,0.1,0.1
			c0.3,0.5,0.4,1.1,0.3,1.8l-0.6,4.5c0,0.4,0,0.6,0.2,0.8c0.1,0.1,0.2,0.1,0.2,0.2c0,0,0.1,0,0.1,0h0l0,0.1v0h0c0,0-0.1,0-0.1,0
			c-0.1,0-0.1,0.1-0.2,0.1c-0.1,0.1-0.1,0.2-0.2,0.3c-0.1,0.1-0.1,0.3-0.1,0.5l-0.5,4.3c0,0.1-0.1,0.2-0.1,0.2
			c-0.1,0-0.1,0.1-0.2,0.1h-2.2h-0.1c0,0,0,0-0.1,0c-0.1,0-0.1,0-0.1-0.1c0,0-0.1-0.1-0.1-0.2l0.5-3.7c0,0,0-0.1,0-0.1
			c0,0-0.1,0-0.1,0h-2.3c0,0-0.1,0-0.1,0c-0.1,0-0.1,0.1-0.1,0.1l-0.5,3.7c0,0.1-0.1,0.2-0.1,0.2c-0.1,0-0.1,0.1-0.2,0.1h-2.2h-0.1
			c0,0-0.1,0-0.1,0s0,0-0.1,0c0,0,0,0-0.1,0c0,0-0.1-0.1-0.1-0.2l0.5-4.3c0-0.2,0-0.4,0-0.5C-98.5,389.2-98.5,389.2-98.5,389.1
			C-98.5,389.1-98.5,389.1-98.5,389.1z M-94.3,383.3c-0.1,0-0.2,0-0.2,0.1c-0.1,0-0.1,0.1-0.2,0.1c-0.1,0.1-0.1,0.1-0.1,0.2
			l-0.4,3.4c0,0.1,0,0.1,0,0.1c0,0,0.1,0.1,0.1,0.1h2.3c0,0,0,0,0.1,0c0.1,0,0.1-0.1,0.1-0.1l0.4-3.4c0-0.1,0-0.2-0.1-0.3
			c0,0-0.1-0.1-0.2-0.1c0,0-0.1,0-0.1,0H-94.3z M-89.3,388.8l0-0.1h0c0,0-0.1,0-0.1,0c0,0,0,0,0,0c0,0,0.1,0,0.1,0c0,0,0,0,0,0
			L-89.3,388.8z"/>
		<path fill="#1E1D21" d="M-88.1,389.2C-88.2,389.2-88.2,389.1-88.1,389.2c-0.1-0.1-0.2-0.2-0.2-0.2c0,0-0.1,0-0.1,0l0-0.2
			c0.1,0,0.2-0.1,0.3-0.1c0.1-0.1,0.2-0.1,0.2-0.2c0.1-0.1,0.1-0.3,0.2-0.5l0.1-0.4c0.1-0.8,0.2-1.6,0.3-2.3c0-0.3,0.1-0.6,0.1-0.8
			c0-0.3,0.1-0.5,0.1-0.7c0-0.2,0-0.4,0.1-0.5c0-0.1,0-0.2,0-0.2c0.1-0.5,0.3-0.9,0.5-1.3c0.3-0.3,0.5-0.6,0.8-0.8
			c0.3-0.2,0.6-0.3,0.9-0.4c0.3-0.1,0.5-0.1,0.6-0.1h0c0,0,0,0,0.1,0s0,0,0.1,0h0h2.7h0c0,0,0,0,0.1,0c0,0,0.1,0,0.1,0
			c0.2,0,0.4,0.1,0.6,0.1c0.3,0.1,0.6,0.2,0.8,0.4c0.1,0.1,0.1,0.1,0.2,0.2c0.1,0.1,0.1,0.1,0.2,0.2c0.4,0.5,0.5,1.1,0.4,1.9
			l-0.1,1.1c0,0.1-0.1,0.2-0.1,0.2s-0.1,0.1-0.2,0.1h-2.3c0,0-0.1,0-0.1,0c0,0-0.1-0.1-0.1-0.1c0,0,0-0.1,0-0.1c0-0.1,0-0.3,0.1-0.6
			v-0.1c0,0,0-0.1,0-0.1c0,0,0-0.1,0-0.1c0,0-0.1-0.1-0.2-0.1c0,0-0.1,0-0.1,0H-84c-0.1,0-0.2,0-0.2,0.1c-0.1,0-0.1,0.1-0.1,0.1
			s-0.1,0.1-0.1,0.2l-0.9,7.4c0,0.1,0,0.2,0.1,0.2c0,0,0,0,0.1,0.1s0.1,0,0.2,0h1.8c0,0,0.1,0,0.2,0c0.1,0,0.2-0.1,0.2-0.3l0.1-0.4
			l0.1-0.4h-1h-0.1c-0.2,0-0.3-0.1-0.2-0.3l0.3-2.3c0-0.1,0.1-0.2,0.1-0.2s0.1-0.1,0.2-0.1l3.6,0c0,0,0.1,0,0.2,0
			c0.1,0,0.1,0.1,0.1,0.2c0,0,0,0,0,0c0,0,0,0,0,0v0.1c0,0.2-0.1,0.4-0.1,0.6c0,0.3-0.1,0.6-0.1,0.9c0,0.3-0.1,0.7-0.1,1
			c-0.1,0.4-0.1,0.7-0.1,1.1c-0.1,0.8-0.2,1.7-0.3,2.7c0,0.1-0.1,0.2-0.1,0.2c-0.1,0-0.1,0.1-0.2,0.1h-5.1h-0.1c-0.1,0-0.1,0-0.1,0
			c-0.1,0-0.2,0-0.4,0s-0.3-0.1-0.5-0.1c-0.2-0.1-0.3-0.1-0.5-0.3s-0.3-0.2-0.5-0.4c0,0,0,0,0-0.1c0,0,0,0,0-0.1
			c-0.3-0.5-0.4-1.1-0.3-1.8l0.2-1.7c0-0.2,0-0.3,0-0.4C-88,389.4-88.1,389.3-88.1,389.2z"/>
		<path fill="#1E1D21" d="M-70.4,394.3C-70.4,394.3-70.5,394.3-70.4,394.3c-0.1,0-0.2,0-0.2-0.1c-0.1-0.1-0.1-0.1,0-0.2l0.3-2.4
			c0-0.2,0.1-0.3,0.1-0.4c0.1-0.1,0.1-0.2,0.1-0.2c0.9-0.8,1.8-1.7,2.6-2.5c0.3-0.3,0.7-0.7,1-1.1c0.3-0.4,0.7-0.7,0.9-1.1
			s0.6-0.7,0.8-1c0.2-0.3,0.4-0.6,0.5-0.9c0-0.1,0.1-0.2,0.1-0.3c0-0.1,0-0.3,0-0.4c-0.1-0.2-0.2-0.3-0.3-0.4
			c-0.2-0.1-0.4-0.1-0.7-0.1H-69h-0.1c-0.1,0-0.1,0-0.2-0.1c-0.1,0-0.1-0.1-0.1-0.2l0.3-2.3c0-0.1,0-0.1,0-0.1c0,0,0-0.1,0.1-0.1
			c0.1,0,0.1-0.1,0.2-0.1c0.1,0,0.1,0,0.1,0h5.3c0,0,0.1,0,0.3,0c0.2,0,0.3,0.1,0.6,0.1c0.2,0.1,0.5,0.2,0.7,0.3
			c0.2,0.1,0.4,0.3,0.6,0.6c0.1,0.2,0.2,0.5,0.3,0.8c0.1,0.3,0.1,0.6,0,1c-0.1,0.5-0.2,1.1-0.4,1.6c-0.2,0.5-0.4,1-0.7,1.5
			c-0.3,0.5-0.6,0.9-0.9,1.4c-0.3,0.4-0.7,0.8-1,1.2c-0.8,0.9-1.6,1.7-2.6,2.4l0,0.1c0,0,0.1,0,0.1,0h4.2c0,0,0,0,0.1,0
			s0.1,0,0.2,0.1c0,0,0,0.1,0,0.1c0,0,0,0.1,0,0.1v0.1l-0.3,2.2c0,0.1-0.1,0.2-0.1,0.2c-0.1,0-0.1,0.1-0.2,0.1H-70.4z"/>
	</g>
	<g>
		<rect x="-33.9" y="380.4" fill="none" width="70.6" height="22.4"/>
		<path fill="#1E1D21" d="M-22.8,389.1C-22.8,389.1-22.8,389-22.8,389.1C-22.8,389-22.8,389-22.8,389.1c-0.1-0.1-0.1-0.1-0.2-0.1
			c0,0-0.1,0-0.1,0c0,0-0.1,0-0.1,0l0-0.2c0.1,0,0.2-0.1,0.3-0.1c0.1-0.1,0.2-0.2,0.2-0.3c0.1-0.1,0.1-0.3,0.2-0.6l0.9-7
			c0-0.1,0.1-0.2,0.1-0.2c0.1,0,0.1-0.1,0.2-0.1h5.3c0,0,0.1,0,0.2,0c0.1,0,0.3,0,0.5,0.1c0.2,0.1,0.4,0.1,0.6,0.3
			c0.2,0.1,0.4,0.3,0.6,0.5c0,0,0.1,0.1,0.1,0.1s0.1,0.1,0.1,0.1c0.3,0.5,0.4,1.1,0.3,1.8l-1,8.3c-0.1,0.5-0.2,0.9-0.3,1.2
			c-0.2,0.3-0.4,0.6-0.6,0.8s-0.5,0.4-0.7,0.5c-0.3,0.1-0.5,0.2-0.7,0.2c-0.2,0.1-0.5,0.1-0.8,0.1h-5.2H-23c-0.1,0-0.1,0-0.1,0
			c0,0-0.1,0-0.1-0.1c0-0.1,0-0.1,0-0.2c0-0.1,0-0.1,0-0.1l0.5-4.2c0-0.2,0-0.4,0-0.5C-22.7,389.2-22.7,389.2-22.8,389.1
			C-22.8,389.1-22.8,389.1-22.8,389.1z M-20,391.3C-20,391.4-19.9,391.4-20,391.3c0,0.1,0.1,0.1,0.1,0.1h2.1c0.1,0,0.2,0,0.2,0
			s0.1-0.1,0.2-0.1c0.1-0.1,0.1-0.1,0.1-0.2l0.9-7.4c0-0.1,0-0.2-0.1-0.3c0,0-0.1-0.1-0.2-0.1c0,0-0.1,0-0.1,0h-2.1c0,0-0.1,0-0.1,0
			c0,0-0.1,0.1-0.1,0.1L-20,391.3z"/>
		<path fill="#1E1D21" d="M-12.5,389.1C-12.5,389.1-12.5,389.1-12.5,389.1C-12.5,389-12.5,389-12.5,389.1c-0.1-0.1-0.1-0.1-0.2-0.1
			c0,0-0.1,0-0.1,0c0,0-0.1,0-0.1,0l0-0.2c0.1,0,0.2-0.1,0.3-0.1c0.1-0.1,0.2-0.2,0.2-0.3c0.1-0.1,0.1-0.3,0.2-0.6l0.6-4.5
			c0-0.5,0.2-0.8,0.4-1.2c0.2-0.3,0.4-0.6,0.6-0.8s0.5-0.4,0.7-0.5c0.3-0.1,0.5-0.2,0.7-0.2c0.2-0.1,0.5-0.1,0.8-0.1h2.8
			c0,0,0.1,0,0.2,0s0.3,0,0.5,0.1c0.2,0.1,0.4,0.1,0.6,0.3c0.2,0.1,0.4,0.3,0.6,0.5c0,0,0.1,0.1,0.1,0.1s0,0.1,0.1,0.1
			c0.3,0.5,0.4,1.1,0.3,1.8l-0.6,4.5c0,0.4,0,0.6,0.2,0.8c0.1,0.1,0.2,0.1,0.2,0.2c0,0,0.1,0,0.1,0h0l0,0.1v0h0c0,0-0.1,0-0.1,0
			c-0.1,0-0.1,0.1-0.2,0.1c-0.1,0.1-0.1,0.2-0.2,0.3c-0.1,0.1-0.1,0.3-0.1,0.5l-0.5,4.3c0,0.1-0.1,0.2-0.1,0.2
			c-0.1,0-0.1,0.1-0.2,0.1h-2.2h-0.1c0,0,0,0-0.1,0c-0.1,0-0.1,0-0.1-0.1c0,0-0.1-0.1-0.1-0.2l0.5-3.7c0,0,0-0.1,0-0.1
			c0,0-0.1,0-0.1,0h-2.3c0,0-0.1,0-0.1,0c-0.1,0-0.1,0.1-0.1,0.1l-0.5,3.7c0,0.1-0.1,0.2-0.1,0.2c-0.1,0-0.1,0.1-0.2,0.1h-2.2h-0.1
			c0,0-0.1,0-0.1,0s0,0-0.1,0s0,0-0.1,0c0,0-0.1-0.1-0.1-0.2l0.5-4.3c0-0.2,0-0.4,0-0.5C-12.4,389.2-12.4,389.2-12.5,389.1
			C-12.5,389.1-12.5,389.1-12.5,389.1z M-8.3,383.3c-0.1,0-0.2,0-0.2,0.1s-0.1,0.1-0.2,0.1c-0.1,0.1-0.1,0.1-0.1,0.2l-0.4,3.4
			c0,0.1,0,0.1,0,0.1c0,0,0,0.1,0.1,0.1h2.3c0,0,0,0,0.1,0s0.1-0.1,0.1-0.1l0.4-3.4c0-0.1,0-0.2-0.1-0.3c0,0-0.1-0.1-0.2-0.1
			c0,0-0.1,0-0.1,0H-8.3z M-3.2,388.8l0-0.1h0c0,0-0.1,0-0.1,0c0,0,0,0,0,0c0,0,0,0,0.1,0c0,0,0,0,0,0L-3.2,388.8z"/>
		<path fill="#1E1D21" d="M-2.1,389.2C-2.1,389.2-2.1,389.1-2.1,389.2c-0.1-0.1-0.2-0.2-0.2-0.2c0,0-0.1,0-0.1,0l0-0.2
			c0.1,0,0.2-0.1,0.3-0.1c0.1-0.1,0.2-0.1,0.2-0.2c0.1-0.1,0.1-0.3,0.2-0.5l0.1-0.4c0.1-0.8,0.2-1.6,0.3-2.3c0-0.3,0.1-0.6,0.1-0.8
			c0-0.3,0.1-0.5,0.1-0.7c0-0.2,0-0.4,0.1-0.5c0-0.1,0-0.2,0-0.2c0.1-0.5,0.3-0.9,0.5-1.3c0.3-0.3,0.5-0.6,0.8-0.8
			c0.3-0.2,0.6-0.3,0.9-0.4c0.3-0.1,0.5-0.1,0.6-0.1h0c0,0,0,0,0.1,0c0,0,0,0,0.1,0h0h2.7h0c0,0,0,0,0.1,0c0,0,0,0,0.1,0
			c0.2,0,0.4,0.1,0.6,0.1c0.3,0.1,0.6,0.2,0.8,0.4c0.1,0.1,0.1,0.1,0.2,0.2c0.1,0.1,0.1,0.1,0.2,0.2c0.4,0.5,0.5,1.1,0.4,1.9
			l-0.1,1.1c0,0.1-0.1,0.2-0.1,0.2s-0.1,0.1-0.2,0.1H4.3c0,0-0.1,0-0.1,0c0,0-0.1-0.1-0.1-0.1c0,0,0-0.1,0-0.1c0-0.1,0-0.3,0.1-0.6
			v-0.1c0,0,0-0.1,0-0.1s0-0.1,0-0.1c0,0-0.1-0.1-0.2-0.1c0,0-0.1,0-0.1,0H2c-0.1,0-0.2,0-0.2,0.1s-0.1,0.1-0.1,0.1
			c0,0.1-0.1,0.1-0.1,0.2l-0.9,7.4c0,0.1,0,0.2,0.1,0.2c0,0,0,0,0.1,0.1c0,0,0.1,0,0.2,0h1.8c0,0,0.1,0,0.2,0c0.1,0,0.2-0.1,0.2-0.3
			l0.1-0.4l0.1-0.4h-1H2.3c-0.2,0-0.3-0.1-0.2-0.3l0.3-2.3c0-0.1,0-0.2,0.1-0.2s0.1-0.1,0.2-0.1l3.6,0c0,0,0.1,0,0.2,0
			c0.1,0,0.1,0.1,0.1,0.2c0,0,0,0,0,0c0,0,0,0,0,0v0.1c0,0.2-0.1,0.4-0.1,0.6c0,0.3-0.1,0.6-0.1,0.9c0,0.3-0.1,0.7-0.1,1
			s-0.1,0.7-0.1,1.1c-0.1,0.8-0.2,1.7-0.3,2.7c0,0.1-0.1,0.2-0.1,0.2c-0.1,0-0.1,0.1-0.2,0.1H0.3H0.2c0,0-0.1,0-0.1,0
			c-0.1,0-0.2,0-0.4,0s-0.3-0.1-0.5-0.1c-0.2-0.1-0.3-0.1-0.5-0.3c-0.2-0.1-0.3-0.2-0.5-0.4c0,0,0,0,0-0.1c0,0,0,0,0-0.1
			c-0.3-0.5-0.4-1.1-0.3-1.8l0.2-1.7c0-0.2,0-0.3,0-0.4C-2,389.4-2,389.3-2.1,389.2z"/>
		<path fill="#1E1D21" d="M15.8,394.3L15.8,394.3c-0.1,0-0.1,0-0.2,0c0,0-0.1,0-0.1-0.1c0,0,0-0.1,0-0.2l0.3-2.3
			c0-0.1,0.1-0.2,0.1-0.2s0.1-0.1,0.2-0.1h4.8c0.1,0,0.2,0,0.3-0.1c0.1-0.1,0.2-0.2,0.2-0.3l0.1-0.5v0c0-0.1,0-0.2-0.1-0.3
			c-0.1-0.1-0.1-0.1-0.2-0.1h-3.8h-0.1c0,0,0,0-0.1,0s-0.1,0-0.1-0.1c0,0,0-0.1-0.1-0.1c0,0,0-0.1,0-0.1l0.3-2.3
			c0-0.1,0.1-0.2,0.1-0.2c0.1,0,0.1-0.1,0.2-0.1H18h3.4c0,0,0.1,0,0.2,0c0.1,0,0.2-0.1,0.2-0.3l0.4-3.2v0c0-0.1,0-0.2-0.1-0.2
			c0-0.1-0.1-0.1-0.2-0.1c-0.1,0-0.1,0-0.1,0h-2.5h-2.2h-0.1c0,0-0.1,0-0.1,0c0,0-0.1,0-0.1,0c0,0-0.1,0-0.1,0c0,0,0-0.1,0-0.1
			c0,0,0-0.1,0-0.1l0.3-2.3c0-0.1,0.1-0.2,0.1-0.2s0.1-0.1,0.2-0.1h2.3h3c0,0,0.1,0,0.2,0s0.3,0,0.5,0.1c0.2,0.1,0.4,0.1,0.6,0.3
			c0.2,0.1,0.4,0.3,0.6,0.5c0,0,0.1,0.1,0.1,0.1s0.1,0.1,0.1,0.1c0.3,0.5,0.4,1.1,0.3,1.8l-0.6,4.5c0,0.3-0.1,0.6-0.2,0.7
			c-0.1,0.1-0.2,0.2-0.4,0.3c0.1,0.1,0.1,0.1,0.2,0.1c0.1,0.1,0.1,0.2,0.2,0.4c0,0.1,0,0.3,0,0.5v0v0.1c-0.1,0.4-0.1,0.8-0.1,1.1
			c0,0.3-0.1,0.5-0.1,0.6c-0.1,0.6-0.2,1.1-0.5,1.5s-0.5,0.6-0.9,0.8c-0.3,0.2-0.6,0.3-0.9,0.4c-0.3,0.1-0.5,0.1-0.7,0.1H21h-3H15.8
			z"/>
	</g>
	<g>
		<rect x="50.7" y="380.4" fill="none" width="75" height="22.4"/>
		<path fill="#1E1D21" d="M64.1,389.1C64.1,389.1,64.1,389,64.1,389.1C64.1,389,64.1,389,64.1,389.1c-0.1-0.1-0.1-0.1-0.2-0.1
			c0,0-0.1,0-0.1,0c0,0-0.1,0-0.1,0l0-0.2c0.1,0,0.2-0.1,0.3-0.1c0.1-0.1,0.2-0.2,0.2-0.3c0.1-0.1,0.1-0.3,0.2-0.6l0.9-7
			c0-0.1,0.1-0.2,0.1-0.2c0.1,0,0.1-0.1,0.2-0.1h5.3c0,0,0.1,0,0.2,0c0.1,0,0.3,0,0.5,0.1c0.2,0.1,0.4,0.1,0.6,0.3
			c0.2,0.1,0.4,0.3,0.6,0.5c0,0,0.1,0.1,0.1,0.1s0.1,0.1,0.1,0.1c0.3,0.5,0.4,1.1,0.3,1.8l-1,8.3c-0.1,0.5-0.2,0.9-0.3,1.2
			c-0.2,0.3-0.4,0.6-0.6,0.8s-0.5,0.4-0.7,0.5c-0.3,0.1-0.5,0.2-0.7,0.2c-0.2,0.1-0.5,0.1-0.8,0.1H64h-0.1c-0.1,0-0.1,0-0.1,0
			c0,0-0.1,0-0.1-0.1c0-0.1,0-0.1,0-0.2c0-0.1,0-0.1,0-0.1l0.5-4.2c0-0.2,0-0.4,0-0.5C64.2,389.2,64.2,389.2,64.1,389.1
			C64.1,389.1,64.1,389.1,64.1,389.1z M66.9,391.3C66.9,391.4,67,391.4,66.9,391.3c0,0.1,0.1,0.1,0.1,0.1h2.1c0.1,0,0.2,0,0.2,0
			s0.1-0.1,0.2-0.1c0.1-0.1,0.1-0.1,0.1-0.2l0.9-7.4c0-0.1,0-0.2-0.1-0.3c0,0-0.1-0.1-0.2-0.1c0,0-0.1,0-0.1,0h-2.1c0,0-0.1,0-0.1,0
			c0,0-0.1,0.1-0.1,0.1L66.9,391.3z"/>
		<path fill="#1E1D21" d="M74.4,389.1C74.4,389.1,74.4,389.1,74.4,389.1C74.4,389,74.4,389,74.4,389.1c-0.1-0.1-0.1-0.1-0.2-0.1
			c0,0-0.1,0-0.1,0c0,0-0.1,0-0.1,0l0-0.2c0.1,0,0.2-0.1,0.3-0.1c0.1-0.1,0.2-0.2,0.2-0.3c0.1-0.1,0.1-0.3,0.2-0.6l0.6-4.5
			c0-0.5,0.2-0.8,0.4-1.2c0.2-0.3,0.4-0.6,0.6-0.8s0.5-0.4,0.7-0.5c0.3-0.1,0.5-0.2,0.7-0.2c0.2-0.1,0.5-0.1,0.8-0.1h2.8
			c0,0,0.1,0,0.2,0s0.3,0,0.5,0.1c0.2,0.1,0.4,0.1,0.6,0.3c0.2,0.1,0.4,0.3,0.6,0.5c0,0,0.1,0.1,0.1,0.1s0,0.1,0.1,0.1
			c0.3,0.5,0.4,1.1,0.3,1.8l-0.6,4.5c0,0.4,0,0.6,0.2,0.8c0.1,0.1,0.2,0.1,0.2,0.2c0,0,0.1,0,0.1,0h0l0,0.1v0h0c0,0-0.1,0-0.1,0
			c-0.1,0-0.1,0.1-0.2,0.1c-0.1,0.1-0.1,0.2-0.2,0.3c-0.1,0.1-0.1,0.3-0.1,0.5l-0.5,4.3c0,0.1-0.1,0.2-0.1,0.2
			c-0.1,0-0.1,0.1-0.2,0.1h-2.2h-0.1c0,0,0,0-0.1,0c-0.1,0-0.1,0-0.1-0.1c0,0-0.1-0.1-0.1-0.2l0.5-3.7c0,0,0-0.1,0-0.1
			c0,0-0.1,0-0.1,0h-2.3c0,0-0.1,0-0.1,0c-0.1,0-0.1,0.1-0.1,0.1l-0.5,3.7c0,0.1-0.1,0.2-0.1,0.2c-0.1,0-0.1,0.1-0.2,0.1h-2.2h-0.1
			c0,0-0.1,0-0.1,0s0,0-0.1,0s0,0-0.1,0c0,0-0.1-0.1-0.1-0.2l0.5-4.3c0-0.2,0-0.4,0-0.5C74.5,389.2,74.5,389.2,74.4,389.1
			C74.4,389.1,74.4,389.1,74.4,389.1z M78.6,383.3c-0.1,0-0.2,0-0.2,0.1s-0.1,0.1-0.2,0.1c-0.1,0.1-0.1,0.1-0.1,0.2l-0.4,3.4
			c0,0.1,0,0.1,0,0.1c0,0,0,0.1,0.1,0.1h2.3c0,0,0,0,0.1,0s0.1-0.1,0.1-0.1l0.4-3.4c0-0.1,0-0.2-0.1-0.3c0,0-0.1-0.1-0.2-0.1
			c0,0-0.1,0-0.1,0H78.6z M83.7,388.8l0-0.1h0c0,0-0.1,0-0.1,0c0,0,0,0,0,0c0,0,0,0,0.1,0c0,0,0,0,0,0L83.7,388.8z"/>
		<path fill="#1E1D21" d="M84.8,389.2C84.8,389.2,84.8,389.1,84.8,389.2c-0.1-0.1-0.2-0.2-0.2-0.2c0,0-0.1,0-0.1,0l0-0.2
			c0.1,0,0.2-0.1,0.3-0.1c0.1-0.1,0.2-0.1,0.2-0.2c0.1-0.1,0.1-0.3,0.2-0.5l0.1-0.4c0.1-0.8,0.2-1.6,0.3-2.3c0-0.3,0.1-0.6,0.1-0.8
			c0-0.3,0.1-0.5,0.1-0.7c0-0.2,0-0.4,0.1-0.5c0-0.1,0-0.2,0-0.2c0.1-0.5,0.3-0.9,0.5-1.3c0.3-0.3,0.5-0.6,0.8-0.8
			c0.3-0.2,0.6-0.3,0.9-0.4c0.3-0.1,0.5-0.1,0.6-0.1h0c0,0,0,0,0.1,0c0,0,0,0,0.1,0h0h2.7h0c0,0,0,0,0.1,0c0,0,0,0,0.1,0
			c0.2,0,0.4,0.1,0.6,0.1c0.3,0.1,0.6,0.2,0.8,0.4c0.1,0.1,0.1,0.1,0.2,0.2c0.1,0.1,0.1,0.1,0.2,0.2c0.4,0.5,0.5,1.1,0.4,1.9
			l-0.1,1.1c0,0.1-0.1,0.2-0.1,0.2s-0.1,0.1-0.2,0.1h-2.3c0,0-0.1,0-0.1,0c0,0-0.1-0.1-0.1-0.1c0,0,0-0.1,0-0.1c0-0.1,0-0.3,0.1-0.6
			v-0.1c0,0,0-0.1,0-0.1s0-0.1,0-0.1c0,0-0.1-0.1-0.2-0.1c0,0-0.1,0-0.1,0h-1.8c-0.1,0-0.2,0-0.2,0.1s-0.1,0.1-0.1,0.1
			c0,0.1-0.1,0.1-0.1,0.2l-0.9,7.4c0,0.1,0,0.2,0.1,0.2c0,0,0,0,0.1,0.1c0,0,0.1,0,0.2,0h1.8c0,0,0.1,0,0.2,0c0.1,0,0.2-0.1,0.2-0.3
			l0.1-0.4l0.1-0.4h-1h-0.1c-0.2,0-0.3-0.1-0.2-0.3l0.3-2.3c0-0.1,0-0.2,0.1-0.2s0.1-0.1,0.2-0.1l3.6,0c0,0,0.1,0,0.2,0
			c0.1,0,0.1,0.1,0.1,0.2c0,0,0,0,0,0c0,0,0,0,0,0v0.1c0,0.2-0.1,0.4-0.1,0.6c0,0.3-0.1,0.6-0.1,0.9c0,0.3-0.1,0.7-0.1,1
			S93,391,93,391.4c-0.1,0.8-0.2,1.7-0.3,2.7c0,0.1-0.1,0.2-0.1,0.2c-0.1,0-0.1,0.1-0.2,0.1h-5.1h-0.1c0,0-0.1,0-0.1,0
			c-0.1,0-0.2,0-0.4,0s-0.3-0.1-0.5-0.1c-0.2-0.1-0.3-0.1-0.5-0.3c-0.2-0.1-0.3-0.2-0.5-0.4c0,0,0,0,0-0.1c0,0,0,0,0-0.1
			c-0.3-0.5-0.4-1.1-0.3-1.8l0.2-1.7c0-0.2,0-0.3,0-0.4C84.9,389.4,84.9,389.3,84.8,389.2z"/>
		<path fill="#1E1D21" d="M107.5,394.3L107.5,394.3c-0.1,0-0.1,0-0.2,0s-0.1,0-0.1-0.1c0,0-0.1-0.1-0.1-0.2l0.5-3.7l0,0
			c0-0.1,0-0.1,0-0.1c0,0,0-0.1,0-0.1c-0.1-0.1-0.1-0.1-0.2-0.1c0,0-0.1,0-0.1,0H105c0,0-0.1,0-0.2,0s-0.3,0-0.4-0.1
			c-0.2,0-0.4-0.1-0.6-0.2c-0.2-0.1-0.4-0.2-0.6-0.4c-0.1,0-0.1-0.1-0.2-0.2c-0.4-0.5-0.6-1.2-0.5-2l0.8-6.4c0-0.1,0.1-0.2,0.1-0.2
			s0.1-0.1,0.2-0.1h2.3c0,0,0,0,0.1,0c0,0,0.1,0,0.1,0.1c0,0.1,0.1,0.1,0.1,0.2l0,0.1l-0.7,5.9c0,0.1,0,0.2,0.1,0.3
			c0,0,0.1,0.1,0.2,0.1c0,0,0.1,0,0.1,0h0h1.8c0,0,0.1,0,0.1,0c0.1,0,0.2-0.1,0.2-0.1c0.1-0.1,0.1-0.1,0.1-0.2l0.7-6
			c0-0.1,0.1-0.2,0.1-0.2s0.1-0.1,0.2-0.1h0h2.3h0c0.1,0,0.1,0,0.2,0.1s0.1,0.1,0.1,0.2l0,0.1l-0.9,6.9c0,0.2,0,0.4,0.1,0.6
			s0.2,0.3,0.4,0.3l0,0.2h0c0,0-0.1,0-0.1,0c-0.1,0-0.1,0.1-0.2,0.1c-0.1,0.1-0.1,0.2-0.2,0.3c-0.1,0.1-0.1,0.3-0.1,0.5l-0.5,4.3
			c0,0.1-0.1,0.2-0.1,0.2s-0.1,0.1-0.2,0.1H107.5z"/>
	</g>
</g>
<g id="hendel">
	<line fill="none" stroke="#C16F61" stroke-width="9" stroke-miterlimit="10" x1="189.1" y1="391.3" x2="189.1" y2="537.1"/>
	<g>
		<path fill="#C15138" d="M189.1,370.6c11.4,0,20.7,9.3,20.7,20.7c0,11.4-9.3,20.7-20.7,20.7c-11.4,0-20.7-9.3-20.7-20.7
			C168.4,379.9,177.7,370.6,189.1,370.6z"/>
	</g>
</g>
</svg>
